<svg fill="#282828" id="Capa_1" enable-background="new 0 0 512 512" height="512" viewBox="0 0 512 512" width="512" xmlns="http://www.w3.org/2000/svg"><g><path d="m386.158 8.733c-5.858-5.858-15.355-5.858-21.213 0l-36.478 36.478c-19.923-10.769-45.386-7.748-62.199 9.065l-69.416 69.416c-14.041 14.041-14.041 36.806 0 50.846 14.041 14.041 36.806 14.041 50.846 0l25.09-25.09c38.912 32.448 92.273 42.6 140.591 26.252l66.82 66.82c8.376-18.192 5.834-40.216-7.65-56.069l35.058-35.058c5.858-5.858 5.858-15.355 0-21.213-.101-.101-.211-.187-.315-.284l.015-.015z"/><path d="m276.459 400.011c-14.041-14.041-36.806-14.041-50.847 0 14.041-14.041 14.041-36.806 0-50.846-14.041-14.041-36.806-14.041-50.847 0 14.041-14.041 14.041-36.806 0-50.846-14.041-14.041-36.806-14.041-50.846 0 14.041-14.041 14.041-36.806 0-50.846-14.041-14.041-36.806-14.041-50.847 0l-46.272 46.272c-14.041 14.041-14.041 36.806 0 50.847 14.041 14.041 36.806 14.041 50.846 0-14.041 14.041-14.041 36.806 0 50.846 14.041 14.041 36.806 14.041 50.846 0-14.041 14.041-14.041 36.806 0 50.847 14.041 14.041 36.806 14.041 50.846 0-14.041 14.041-14.041 36.806 0 50.846 14.041 14.041 36.806 14.041 50.846 0l46.272-46.272c14.044-14.043 14.044-36.807.003-50.848z"/><path d="m276.16 188.504-7.248 7.248c-25.715 25.715-67.558 25.715-93.273 0s-25.715-67.558 0-93.273l57.514-57.514c-16.157-6.188-34.547-4.891-49.768 3.892l-36.329-36.329c-5.858-5.858-15.355-5.858-21.213 0l-121.45 121.449c-5.858 5.858-5.858 15.355 0 21.213l36.329 36.329c-8.783 15.221-10.08 33.611-3.892 49.768l15.029-15.029c25.715-25.715 67.558-25.715 93.273 0 9.374 9.374 15.315 20.895 17.854 32.992 12.098 2.54 23.618 8.48 32.992 17.854s15.314 20.895 17.854 32.993c12.098 2.54 23.618 8.48 32.992 17.853 9.374 9.374 15.315 20.895 17.854 32.992 12.098 2.54 23.618 8.48 32.992 17.854 25.715 25.715 25.715 67.558 0 93.273l-18.562 18.562 6.497 6.497c14.041 14.041 36.806 14.041 50.847 0 14.041-14.041 14.041-36.806 0-50.847 14.041 14.041 36.806 14.041 50.847 0 14.041-14.041 14.041-36.806 0-50.847 14.041 14.041 36.806 14.041 50.847 0 14.041-14.041 14.041-36.806 0-50.847 14.041 14.041 36.806 14.041 50.847 0 14.041-14.041 14.041-36.806 0-50.847l-84.475-84.475c-43.996 9.707-89.992 2.097-128.358-20.761z"/></g></svg>