<svg version="1.1" xmlns="http://www.w3.org/2000/svg" xmlns:xlink="http://www.w3.org/1999/xlink" preserveAspectRatio="xMidYMid meet" viewBox="0 0 640 640" width="640" height="640"><defs><path d="M558.26 306.15C558.26 444.44 445.98 556.72 307.69 556.72C169.4 556.72 57.12 444.44 57.12 306.15C57.12 167.86 169.4 55.58 307.69 55.58C445.98 55.58 558.26 167.86 558.26 306.15Z" id="a4NPoyJsF"></path><path d="M350.19 306.15C350.19 329.6 331.15 348.65 307.69 348.65C284.23 348.65 265.19 329.6 265.19 306.15C265.19 282.69 284.23 263.65 307.69 263.65C331.15 263.65 350.19 282.69 350.19 306.15Z" id="g2qr4Rj01M"></path><path d="M611 527.72C611 574.63 572.91 612.72 526 612.72C479.09 612.72 441 574.63 441 527.72C441 480.81 479.09 442.72 526 442.72C572.91 442.72 611 480.81 611 527.72Z" id="b7zJ0VF3nw"></path></defs><g><g><g><g><use xlink:href="#a4NPoyJsF" opacity="1" fill-opacity="0" stroke="#ffffff" stroke-width="50" stroke-opacity="1"></use></g></g><g><use xlink:href="#g2qr4Rj01M" opacity="1" fill="#ffffff" fill-opacity="1"></use></g><g><use xlink:href="#b7zJ0VF3nw" opacity="1" fill="#ffffff" fill-opacity="1"></use></g></g></g></svg>