<?xml version="1.0" encoding="UTF-8" standalone="no"?>
<!DOCTYPE svg PUBLIC "-//W3C//DTD SVG 1.1//EN" "http://www.w3.org/Graphics/SVG/1.1/DTD/svg11.dtd">
<svg fill="#484848" version="1.1" xmlns="http://www.w3.org/2000/svg" xmlns:xlink="http://www.w3.org/1999/xlink" preserveAspectRatio="xMidYMid meet" viewBox="0 0 640 640" width="640" height="640"><defs><path d="M611.06 24.02C615.42 24.02 618.95 27.56 618.95 31.91C618.95 54.16 618.95 113.02 618.95 135.27C618.95 139.63 615.42 143.16 611.06 143.16C493.06 143.16 146.94 143.16 28.94 143.16C24.58 143.16 21.05 139.63 21.05 135.27C21.05 113.02 21.05 54.16 21.05 31.91C21.05 27.56 24.58 24.02 28.94 24.02C146.94 24.02 493.06 24.02 611.06 24.02Z" id="b2GIvRdZUI"></path><path d="M611.06 249.13C615.42 249.13 618.95 252.66 618.95 257.02C618.95 279.27 618.95 338.13 618.95 360.38C618.95 364.73 615.42 368.27 611.06 368.27C493.06 368.27 146.94 368.27 28.94 368.27C24.58 368.27 21.05 364.73 21.05 360.38C21.05 338.13 21.05 279.27 21.05 257.02C21.05 252.66 24.58 249.13 28.94 249.13C146.94 249.13 493.06 249.13 611.06 249.13Z" id="d362LdPWa"></path><path d="M611.06 487C615.42 487 618.95 490.53 618.95 494.89C618.95 517.14 618.95 576 618.95 598.25C618.95 602.61 615.42 606.14 611.06 606.14C493.06 606.14 146.94 606.14 28.94 606.14C24.58 606.14 21.05 602.61 21.05 598.25C21.05 576 21.05 517.14 21.05 494.89C21.05 490.53 24.58 487 28.94 487C146.94 487 493.06 487 611.06 487Z" id="d6xn8U6yLk"></path></defs><g><g><g><use xlink:href="#b2GIvRdZUI" opacity="1" fill-opacity="1"></use></g><g><use xlink:href="#d362LdPWa" opacity="1" fill-opacity="1"></use></g><g><use xlink:href="#d6xn8U6yLk" opacity="1" fill-opacity="1"></use></g></g></g></svg>